<svg width="16" height="16" viewBox="0 0 16 16" fill="none" xmlns="http://www.w3.org/2000/svg">
<path d="M6.66669 2.66663L9.33335 13.3333M8.00002 7.99996L2.66669 9.33329M2.66669 3.99996C2.66669 3.64634 2.80716 3.3072 3.05721 3.05715C3.30726 2.8071 3.6464 2.66663 4.00002 2.66663H12C12.3536 2.66663 12.6928 2.8071 12.9428 3.05715C13.1929 3.3072 13.3334 3.64634 13.3334 3.99996V12C13.3334 12.3536 13.1929 12.6927 12.9428 12.9428C12.6928 13.1928 12.3536 13.3333 12 13.3333H4.00002C3.6464 13.3333 3.30726 13.1928 3.05721 12.9428C2.80716 12.6927 2.66669 12.3536 2.66669 12V3.99996Z" stroke="#7D7D7D" stroke-width="1.25" stroke-linecap="round" stroke-linejoin="round"/>
</svg>
