<svg width="24" height="24" viewBox="0 0 24 24" fill="none" xmlns="http://www.w3.org/2000/svg">
<path d="M6 19H9.692V13.923C9.692 13.6943 9.76967 13.5027 9.925 13.348C10.0797 13.1927 10.2713 13.115 10.5 13.115H13.5C13.7287 13.115 13.9207 13.1927 14.076 13.348C14.2307 13.5027 14.308 13.6943 14.308 13.923V19H18V10.308C18 10.2053 17.9777 10.112 17.933 10.028C17.8883 9.944 17.8273 9.87066 17.75 9.808L12.366 5.75C12.2633 5.66066 12.1413 5.616 12 5.616C11.8587 5.616 11.737 5.66066 11.635 5.75L6.25 9.808C6.17333 9.872 6.11233 9.94533 6.067 10.028C6.02167 10.1107 5.99933 10.204 6 10.308V19ZM5 19V10.308C5 10.052 5.05733 9.80967 5.172 9.581C5.28667 9.35233 5.44467 9.164 5.646 9.016L11.031 4.938C11.313 4.72266 11.635 4.615 11.997 4.615C12.359 4.615 12.683 4.72266 12.969 4.938L18.354 9.015C18.556 9.163 18.714 9.35167 18.828 9.581C18.9427 9.80967 19 10.052 19 10.308V19C19 19.268 18.9003 19.5017 18.701 19.701C18.5017 19.9003 18.268 20 18 20H14.116C13.8867 20 13.6947 19.9227 13.54 19.768C13.3853 19.6127 13.308 19.4207 13.308 19.192V14.116H10.692V19.192C10.692 19.4213 10.6147 19.6133 10.46 19.768C10.3053 19.9227 10.1137 20 9.885 20H6C5.732 20 5.49833 19.9003 5.299 19.701C5.09967 19.5017 5 19.268 5 19Z" fill="#FFA500"/>
</svg>
