<svg width="12" height="18" viewBox="0 0 12 18" fill="none" xmlns="http://www.w3.org/2000/svg">
<path d="M6.53033 0.21967C6.23744 -0.0732233 5.76256 -0.0732233 5.46967 0.21967L0.696699 4.99264C0.403806 5.28553 0.403806 5.76041 0.696699 6.0533C0.989593 6.34619 1.46447 6.34619 1.75736 6.0533L6 1.81066L10.2426 6.0533C10.5355 6.34619 11.0104 6.34619 11.3033 6.0533C11.5962 5.76041 11.5962 5.28553 11.3033 4.99264L6.53033 0.21967ZM5.25 17.25C5.25 17.6642 5.58579 18 6 18C6.41421 18 6.75 17.6642 6.75 17.25H5.25ZM5.25 0.75V17.25H6.75V0.75H5.25Z" fill="black"/>
</svg>
