<svg width="24" height="25" viewBox="0 0 24 25" fill="none" xmlns="http://www.w3.org/2000/svg">
<path d="M3 9.21C3 7.736 3 7 3.393 6.57C3.53209 6.41703 3.70129 6.29446 3.89 6.21C4.422 5.974 5.121 6.207 6.519 6.673C7.586 7.029 8.119 7.207 8.659 7.188C8.8571 7.18149 9.05406 7.15536 9.247 7.11C9.772 6.985 10.24 6.673 11.176 6.05L12.558 5.128C13.758 4.328 14.357 3.928 15.045 3.837C15.733 3.744 16.417 3.972 17.784 4.428L18.949 4.816C19.939 5.146 20.434 5.311 20.717 5.704C21 6.097 21 6.62 21 7.662V15.791C21 17.264 21 18.001 20.607 18.431C20.4677 18.5832 20.2985 18.7051 20.11 18.789C19.578 19.026 18.879 18.793 17.481 18.327C16.414 17.971 15.881 17.793 15.341 17.812C15.1429 17.8185 14.9459 17.8446 14.753 17.89C14.228 18.015 13.76 18.327 12.824 18.95L11.442 19.872C10.242 20.672 9.643 21.072 8.955 21.163C8.267 21.256 7.583 21.028 6.216 20.572L5.051 20.184C4.061 19.854 3.566 19.689 3.283 19.296C3 18.903 3 18.38 3 17.338V9.21Z" stroke="black" stroke-width="1.5"/>
<path opacity="0.5" d="M9 7.139V21M15 3.5V17.5" stroke="black" stroke-width="1.5"/>
</svg>
