<?xml version="1.0" encoding="UTF-8"?>
<svg id="OBJECTS" xmlns="http://www.w3.org/2000/svg" viewBox="0 0 800 800">
  <defs>
    <style>
      .cls-1 {
        fill: #9f7a7b;
      }

      .cls-2 {
        fill: #6f6465;
      }

      .cls-3 {
        fill: #9d7b7b;
      }

      .cls-4 {
        fill: #7c3047;
      }

      .cls-5 {
        fill: #2d2219;
      }

      .cls-6 {
        fill: #1c1e26;
      }

      .cls-7 {
        fill: #2b2a2c;
      }

      .cls-8 {
        fill: #b74242;
      }

      .cls-9 {
        fill: #3e3a3e;
      }

      .cls-10 {
        fill: #edc72f;
      }

      .cls-11 {
        fill: #f0f0dc;
      }
    </style>
  </defs>
  <rect class="cls-5" x="557.28" y="557.28" width="20.97" height="20.97"/>
  <rect class="cls-5" x="578.25" y="557.28" width="20.97" height="20.97"/>
  <rect class="cls-9" x="242.72" y="557.28" width="20.97" height="20.97"/>
  <rect class="cls-9" x="221.75" y="557.28" width="20.97" height="20.97"/>
  <rect class="cls-9" x="494.37" y="578.25" width="20.97" height="20.97"/>
  <rect class="cls-7" x="326.6" y="578.25" width="20.97" height="20.97"/>
  <rect class="cls-7" x="284.66" y="578.25" width="20.97" height="20.97"/>
  <rect class="cls-7" x="347.57" y="578.25" width="20.97" height="20.97"/>
  <rect class="cls-9" x="473.4" y="599.22" width="20.97" height="20.97"/>
  <rect class="cls-9" x="452.43" y="599.22" width="20.97" height="20.97"/>
  <rect class="cls-9" x="431.46" y="599.22" width="20.97" height="20.97"/>
  <rect class="cls-9" x="494.37" y="599.22" width="20.97" height="20.97"/>
  <rect class="cls-7" x="536.31" y="599.22" width="20.97" height="20.97"/>
  <rect class="cls-9" x="263.69" y="599.22" width="20.97" height="20.97"/>
  <rect class="cls-7" x="326.6" y="599.22" width="20.97" height="20.97"/>
  <rect class="cls-7" x="305.63" y="599.22" width="20.97" height="20.97"/>
  <rect class="cls-7" x="284.66" y="599.22" width="20.97" height="20.97"/>
  <rect class="cls-5" x="368.54" y="599.22" width="20.97" height="20.97"/>
  <rect class="cls-5" x="389.51" y="599.22" width="20.97" height="20.97"/>
  <rect class="cls-7" x="557.28" y="599.22" width="20.97" height="20.97"/>
  <rect class="cls-9" x="578.25" y="599.22" width="20.97" height="20.97"/>
  <rect class="cls-9" x="242.72" y="599.22" width="20.97" height="20.97"/>
  <rect class="cls-9" x="221.75" y="599.22" width="20.97" height="20.97"/>
  <rect class="cls-9" x="410.49" y="620.2" width="20.97" height="20.97"/>
  <rect class="cls-7" x="473.4" y="620.2" width="20.97" height="20.97"/>
  <rect class="cls-9" x="452.43" y="620.2" width="20.97" height="20.97"/>
  <rect class="cls-9" x="431.46" y="620.2" width="20.97" height="20.97"/>
  <rect class="cls-7" x="494.37" y="620.2" width="20.97" height="20.97"/>
  <rect class="cls-7" x="536.31" y="620.2" width="20.97" height="20.97"/>
  <rect class="cls-9" x="263.69" y="620.2" width="20.97" height="20.97"/>
  <rect class="cls-7" x="305.63" y="620.2" width="20.97" height="20.97"/>
  <rect class="cls-9" x="284.66" y="620.2" width="20.97" height="20.97"/>
  <rect class="cls-1" x="347.57" y="620.2" width="20.97" height="20.97"/>
  <rect class="cls-1" x="368.54" y="620.2" width="20.97" height="20.97"/>
  <rect class="cls-1" x="389.51" y="620.2" width="20.97" height="20.97"/>
  <rect class="cls-7" x="557.28" y="620.2" width="20.97" height="20.97"/>
  <rect class="cls-7" x="578.25" y="620.2" width="20.97" height="20.97"/>
  <rect class="cls-9" x="242.72" y="620.2" width="20.97" height="20.97"/>
  <rect class="cls-1" x="221.75" y="620.2" width="20.97" height="20.97"/>
  <rect class="cls-1" x="410.49" y="641.17" width="20.97" height="20.97"/>
  <rect class="cls-7" x="473.4" y="641.17" width="20.97" height="20.97"/>
  <rect class="cls-7" x="452.43" y="641.17" width="20.97" height="20.97"/>
  <rect class="cls-7" x="431.46" y="641.17" width="20.97" height="20.97"/>
  <rect class="cls-7" x="494.37" y="641.17" width="20.97" height="20.97"/>
  <rect class="cls-9" x="263.69" y="641.17" width="20.97" height="20.97"/>
  <rect class="cls-9" x="284.66" y="641.17" width="20.97" height="20.97"/>
  <rect class="cls-1" x="347.57" y="641.17" width="20.97" height="20.97"/>
  <rect class="cls-1" x="368.54" y="641.17" width="20.97" height="20.97"/>
  <rect class="cls-1" x="389.51" y="641.17" width="20.97" height="20.97"/>
  <rect class="cls-7" x="578.25" y="641.17" width="20.97" height="20.97"/>
  <g>
    <rect class="cls-10" x="410.49" y="389.51" width="20.97" height="20.97"/>
    <rect class="cls-10" x="431.46" y="368.54" width="20.97" height="20.97"/>
    <rect class="cls-8" x="452.43" y="347.57" width="20.97" height="20.97"/>
    <rect class="cls-10" x="452.43" y="368.54" width="20.97" height="20.97"/>
    <rect class="cls-8" x="473.4" y="368.54" width="20.97" height="20.97"/>
    <rect class="cls-10" x="473.4" y="389.51" width="20.97" height="20.97"/>
    <rect class="cls-10" x="452.43" y="389.51" width="20.97" height="20.97"/>
    <rect class="cls-10" x="431.46" y="389.51" width="20.97" height="20.97"/>
    <rect class="cls-8" x="473.4" y="347.57" width="20.97" height="20.97"/>
    <rect class="cls-8" x="494.37" y="368.54" width="20.97" height="20.97"/>
    <rect class="cls-8" x="494.37" y="389.51" width="20.97" height="20.97"/>
    <rect class="cls-8" x="536.31" y="389.51" width="20.97" height="20.97"/>
    <rect class="cls-8" x="263.69" y="389.51" width="20.97" height="20.97"/>
    <rect class="cls-8" x="284.66" y="368.54" width="20.97" height="20.97"/>
    <rect class="cls-8" x="305.63" y="368.54" width="20.97" height="20.97"/>
    <rect class="cls-8" x="326.6" y="368.54" width="20.97" height="20.97"/>
    <rect class="cls-8" x="326.6" y="389.51" width="20.97" height="20.97"/>
    <rect class="cls-8" x="305.63" y="389.51" width="20.97" height="20.97"/>
    <rect class="cls-8" x="284.66" y="389.51" width="20.97" height="20.97"/>
    <rect class="cls-8" x="326.6" y="347.57" width="20.97" height="20.97"/>
    <rect class="cls-8" x="347.57" y="368.54" width="20.97" height="20.97"/>
    <rect class="cls-8" x="347.57" y="389.51" width="20.97" height="20.97"/>
    <rect class="cls-10" x="368.54" y="368.54" width="20.97" height="20.97"/>
    <rect class="cls-8" x="368.54" y="389.51" width="20.97" height="20.97"/>
    <rect class="cls-10" x="389.51" y="389.51" width="20.97" height="20.97"/>
    <rect class="cls-10" x="410.49" y="368.54" width="20.97" height="20.97"/>
    <rect class="cls-10" x="389.51" y="368.54" width="20.97" height="20.97"/>
    <rect class="cls-10" x="431.46" y="347.57" width="20.97" height="20.97"/>
    <rect class="cls-10" x="368.54" y="347.57" width="20.97" height="20.97"/>
    <rect class="cls-10" x="410.49" y="347.57" width="20.97" height="20.97"/>
    <rect class="cls-10" x="389.51" y="347.57" width="20.97" height="20.97"/>
    <rect class="cls-10" x="431.46" y="326.6" width="20.97" height="20.97"/>
    <rect class="cls-10" x="368.54" y="326.6" width="20.97" height="20.97"/>
    <rect class="cls-10" x="410.49" y="326.6" width="20.97" height="20.97"/>
    <rect class="cls-10" x="389.51" y="326.6" width="20.97" height="20.97"/>
    <rect class="cls-8" x="431.46" y="305.63" width="20.97" height="20.97"/>
    <rect class="cls-10" x="368.54" y="305.63" width="20.97" height="20.97"/>
    <rect class="cls-10" x="410.49" y="305.63" width="20.97" height="20.97"/>
    <rect class="cls-10" x="389.51" y="305.63" width="20.97" height="20.97"/>
    <rect class="cls-8" x="431.46" y="284.66" width="20.97" height="20.97"/>
    <rect class="cls-8" x="368.54" y="284.66" width="20.97" height="20.97"/>
    <rect class="cls-10" x="410.49" y="284.66" width="20.97" height="20.97"/>
    <rect class="cls-10" x="389.51" y="284.66" width="20.97" height="20.97"/>
    <rect class="cls-8" x="431.46" y="263.69" width="20.97" height="20.97"/>
    <rect class="cls-8" x="368.54" y="263.69" width="20.97" height="20.97"/>
    <rect class="cls-10" x="410.49" y="263.69" width="20.97" height="20.97"/>
    <rect class="cls-10" x="389.51" y="263.69" width="20.97" height="20.97"/>
    <rect class="cls-8" x="431.46" y="242.72" width="20.97" height="20.97"/>
    <rect class="cls-8" x="368.54" y="242.72" width="20.97" height="20.97"/>
    <rect class="cls-10" x="410.49" y="242.72" width="20.97" height="20.97"/>
    <rect class="cls-8" x="389.51" y="242.72" width="20.97" height="20.97"/>
    <rect class="cls-8" x="431.46" y="221.75" width="20.97" height="20.97"/>
    <rect class="cls-8" x="368.54" y="221.75" width="20.97" height="20.97"/>
    <rect class="cls-8" x="410.49" y="221.75" width="20.97" height="20.97"/>
    <rect class="cls-8" x="389.51" y="221.75" width="20.97" height="20.97"/>
    <rect class="cls-8" x="431.46" y="200.77" width="20.97" height="20.97"/>
    <rect class="cls-8" x="368.54" y="200.77" width="20.97" height="20.97"/>
    <rect class="cls-8" x="410.49" y="200.77" width="20.97" height="20.97"/>
    <rect class="cls-8" x="389.51" y="200.77" width="20.97" height="20.97"/>
    <rect class="cls-8" x="431.46" y="179.8" width="20.97" height="20.97"/>
    <rect class="cls-8" x="347.57" y="326.6" width="20.97" height="20.97"/>
    <rect class="cls-8" x="347.57" y="305.63" width="20.97" height="20.97"/>
    <rect class="cls-8" x="347.57" y="284.66" width="20.97" height="20.97"/>
    <rect class="cls-8" x="347.57" y="263.69" width="20.97" height="20.97"/>
    <rect class="cls-8" x="410.49" y="179.8" width="20.97" height="20.97"/>
    <rect class="cls-8" x="389.51" y="179.8" width="20.97" height="20.97"/>
    <rect class="cls-8" x="431.46" y="158.83" width="20.97" height="20.97"/>
    <rect class="cls-8" x="452.43" y="326.6" width="20.97" height="20.97"/>
    <rect class="cls-8" x="452.43" y="305.63" width="20.97" height="20.97"/>
    <rect class="cls-8" x="452.43" y="284.66" width="20.97" height="20.97"/>
    <rect class="cls-8" x="452.43" y="263.69" width="20.97" height="20.97"/>
    <rect class="cls-8" x="536.31" y="347.57" width="20.97" height="20.97"/>
    <rect class="cls-8" x="536.31" y="368.54" width="20.97" height="20.97"/>
    <rect class="cls-8" x="557.28" y="389.51" width="20.97" height="20.97"/>
    <rect class="cls-8" x="410.49" y="158.83" width="20.97" height="20.97"/>
    <rect class="cls-8" x="389.51" y="158.83" width="20.97" height="20.97"/>
    <rect class="cls-8" x="410.49" y="137.86" width="20.97" height="20.97"/>
    <rect class="cls-8" x="410.49" y="116.89" width="20.97" height="20.97"/>
    <rect class="cls-8" x="347.57" y="347.57" width="20.97" height="20.97"/>
    <rect class="cls-8" x="263.69" y="347.57" width="20.97" height="20.97"/>
    <rect class="cls-8" x="263.69" y="326.6" width="20.97" height="20.97"/>
    <rect class="cls-8" x="263.69" y="305.63" width="20.97" height="20.97"/>
    <rect class="cls-8" x="263.69" y="368.54" width="20.97" height="20.97"/>
    <rect class="cls-10" x="410.49" y="410.49" width="20.97" height="20.97"/>
    <rect class="cls-10" x="473.4" y="410.49" width="20.97" height="20.97"/>
    <rect class="cls-10" x="452.43" y="410.49" width="20.97" height="20.97"/>
    <rect class="cls-11" x="431.46" y="410.49" width="20.97" height="20.97"/>
    <rect class="cls-10" x="494.37" y="410.49" width="20.97" height="20.97"/>
    <rect class="cls-8" x="515.34" y="410.49" width="20.97" height="20.97"/>
    <rect class="cls-8" x="536.31" y="410.49" width="20.97" height="20.97"/>
    <rect class="cls-8" x="263.69" y="410.49" width="20.97" height="20.97"/>
    <rect class="cls-10" x="326.6" y="410.49" width="20.97" height="20.97"/>
    <rect class="cls-8" x="305.63" y="410.49" width="20.97" height="20.97"/>
    <rect class="cls-8" x="284.66" y="410.49" width="20.97" height="20.97"/>
    <rect class="cls-8" x="347.57" y="410.49" width="20.97" height="20.97"/>
    <rect class="cls-8" x="368.54" y="410.49" width="20.97" height="20.97"/>
    <rect class="cls-10" x="389.51" y="410.49" width="20.97" height="20.97"/>
    <rect class="cls-8" x="557.28" y="410.49" width="20.97" height="20.97"/>
    <rect class="cls-8" x="242.72" y="410.49" width="20.97" height="20.97"/>
    <rect class="cls-10" x="410.49" y="431.46" width="20.97" height="20.97"/>
    <rect class="cls-10" x="473.4" y="431.46" width="20.97" height="20.97"/>
    <rect class="cls-11" x="452.43" y="431.46" width="20.97" height="20.97"/>
    <rect class="cls-11" x="431.46" y="431.46" width="20.97" height="20.97"/>
    <rect class="cls-10" x="494.37" y="431.46" width="20.97" height="20.97"/>
    <rect class="cls-10" x="515.34" y="431.46" width="20.97" height="20.97"/>
    <rect class="cls-8" x="536.31" y="431.46" width="20.97" height="20.97"/>
    <rect class="cls-8" x="263.69" y="431.46" width="20.97" height="20.97"/>
    <rect class="cls-10" x="326.6" y="431.46" width="20.97" height="20.97"/>
    <rect class="cls-10" x="305.63" y="431.46" width="20.97" height="20.97"/>
    <rect class="cls-8" x="284.66" y="431.46" width="20.97" height="20.97"/>
    <rect class="cls-8" x="347.57" y="431.46" width="20.97" height="20.97"/>
    <rect class="cls-8" x="368.54" y="431.46" width="20.97" height="20.97"/>
    <rect class="cls-8" x="389.51" y="431.46" width="20.97" height="20.97"/>
    <rect class="cls-8" x="557.28" y="431.46" width="20.97" height="20.97"/>
    <rect class="cls-8" x="242.72" y="431.46" width="20.97" height="20.97"/>
    <rect class="cls-8" x="221.75" y="431.46" width="20.97" height="20.97"/>
    <rect class="cls-10" x="410.49" y="452.43" width="20.97" height="20.97"/>
    <rect class="cls-11" x="473.4" y="452.43" width="20.97" height="20.97"/>
    <rect class="cls-11" x="452.43" y="452.43" width="20.97" height="20.97"/>
    <rect class="cls-11" x="431.46" y="452.43" width="20.97" height="20.97"/>
    <rect class="cls-10" x="494.37" y="452.43" width="20.97" height="20.97"/>
    <rect class="cls-10" x="515.34" y="452.43" width="20.97" height="20.97"/>
    <rect class="cls-8" x="536.31" y="452.43" width="20.97" height="20.97"/>
    <rect class="cls-8" x="263.69" y="452.43" width="20.97" height="20.97"/>
    <rect class="cls-10" x="326.6" y="452.43" width="20.97" height="20.97"/>
    <rect class="cls-10" x="305.63" y="452.43" width="20.97" height="20.97"/>
    <rect class="cls-10" x="284.66" y="452.43" width="20.97" height="20.97"/>
    <rect class="cls-8" x="347.57" y="452.43" width="20.97" height="20.97"/>
    <rect class="cls-8" x="368.54" y="452.43" width="20.97" height="20.97"/>
    <rect class="cls-8" x="389.51" y="452.43" width="20.97" height="20.97"/>
    <rect class="cls-8" x="557.28" y="452.43" width="20.97" height="20.97"/>
    <rect class="cls-8" x="578.25" y="452.43" width="20.97" height="20.97"/>
    <rect class="cls-8" x="242.72" y="452.43" width="20.97" height="20.97"/>
    <rect class="cls-8" x="221.75" y="452.43" width="20.97" height="20.97"/>
    <rect class="cls-10" x="410.49" y="473.4" width="20.97" height="20.97"/>
    <rect class="cls-11" x="473.4" y="473.4" width="20.97" height="20.97"/>
    <rect class="cls-11" x="452.43" y="473.4" width="20.97" height="20.97"/>
    <rect class="cls-11" x="431.46" y="473.4" width="20.97" height="20.97"/>
    <rect class="cls-10" x="494.37" y="473.4" width="20.97" height="20.97"/>
    <rect class="cls-10" x="515.34" y="473.4" width="20.97" height="20.97"/>
    <rect class="cls-8" x="536.31" y="473.4" width="20.97" height="20.97"/>
    <rect class="cls-8" x="263.69" y="473.4" width="20.97" height="20.97"/>
    <rect class="cls-10" x="326.6" y="473.4" width="20.97" height="20.97"/>
    <rect class="cls-10" x="305.63" y="473.4" width="20.97" height="20.97"/>
    <rect class="cls-10" x="284.66" y="473.4" width="20.97" height="20.97"/>
    <rect class="cls-10" x="347.57" y="473.4" width="20.97" height="20.97"/>
    <rect class="cls-8" x="368.54" y="473.4" width="20.97" height="20.97"/>
    <rect class="cls-10" x="389.51" y="473.4" width="20.97" height="20.97"/>
    <rect class="cls-8" x="557.28" y="473.4" width="20.97" height="20.97"/>
    <rect class="cls-8" x="578.25" y="473.4" width="20.97" height="20.97"/>
    <rect class="cls-8" x="242.72" y="473.4" width="20.97" height="20.97"/>
    <rect class="cls-8" x="221.75" y="473.4" width="20.97" height="20.97"/>
    <rect class="cls-11" x="410.49" y="494.37" width="20.97" height="20.97"/>
    <rect class="cls-11" x="473.4" y="494.37" width="20.97" height="20.97"/>
    <rect class="cls-11" x="452.43" y="494.37" width="20.97" height="20.97"/>
    <rect class="cls-11" x="431.46" y="494.37" width="20.97" height="20.97"/>
    <rect class="cls-10" x="494.37" y="494.37" width="20.97" height="20.97"/>
    <rect class="cls-8" x="515.34" y="494.37" width="20.97" height="20.97"/>
    <rect class="cls-8" x="536.31" y="494.37" width="20.97" height="20.97"/>
    <rect class="cls-8" x="263.69" y="494.37" width="20.97" height="20.97"/>
    <rect class="cls-10" x="326.6" y="494.37" width="20.97" height="20.97"/>
    <rect class="cls-10" x="305.63" y="494.37" width="20.97" height="20.97"/>
    <rect class="cls-10" x="284.66" y="494.37" width="20.97" height="20.97"/>
    <rect class="cls-10" x="347.57" y="494.37" width="20.97" height="20.97"/>
    <rect class="cls-10" x="368.54" y="494.37" width="20.97" height="20.97"/>
    <rect class="cls-10" x="389.51" y="494.37" width="20.97" height="20.97"/>
    <rect class="cls-8" x="557.28" y="494.37" width="20.97" height="20.97"/>
    <rect class="cls-8" x="578.25" y="494.37" width="20.97" height="20.97"/>
    <rect class="cls-8" x="242.72" y="494.37" width="20.97" height="20.97"/>
    <rect class="cls-11" x="410.49" y="515.34" width="20.97" height="20.97"/>
    <rect class="cls-10" x="473.4" y="515.34" width="20.97" height="20.97"/>
    <rect class="cls-11" x="452.43" y="515.34" width="20.97" height="20.97"/>
    <rect class="cls-11" x="431.46" y="515.34" width="20.97" height="20.97"/>
    <rect class="cls-10" x="494.37" y="515.34" width="20.97" height="20.97"/>
    <rect class="cls-8" x="515.34" y="515.34" width="20.97" height="20.97"/>
    <rect class="cls-8" x="536.31" y="515.34" width="20.97" height="20.97"/>
    <rect class="cls-8" x="263.69" y="515.34" width="20.97" height="20.97"/>
    <rect class="cls-10" x="326.6" y="515.34" width="20.97" height="20.97"/>
    <rect class="cls-10" x="305.63" y="515.34" width="20.97" height="20.97"/>
    <rect class="cls-8" x="284.66" y="515.34" width="20.97" height="20.97"/>
    <rect class="cls-10" x="347.57" y="515.34" width="20.97" height="20.97"/>
    <rect class="cls-10" x="368.54" y="515.34" width="20.97" height="20.97"/>
    <rect class="cls-11" x="389.51" y="515.34" width="20.97" height="20.97"/>
    <rect class="cls-8" x="557.28" y="515.34" width="20.97" height="20.97"/>
    <rect class="cls-8" x="242.72" y="515.34" width="20.97" height="20.97"/>
    <rect class="cls-11" x="410.49" y="536.31" width="20.97" height="20.97"/>
    <rect class="cls-10" x="473.4" y="536.31" width="20.97" height="20.97"/>
    <rect class="cls-11" x="452.43" y="536.31" width="20.97" height="20.97"/>
    <rect class="cls-11" x="431.46" y="536.31" width="20.97" height="20.97"/>
    <rect class="cls-8" x="494.37" y="536.31" width="20.97" height="20.97"/>
    <rect class="cls-8" x="515.34" y="536.31" width="20.97" height="20.97"/>
    <rect class="cls-8" x="536.31" y="536.31" width="20.97" height="20.97"/>
    <rect class="cls-8" x="263.69" y="536.31" width="20.97" height="20.97"/>
    <rect class="cls-10" x="326.6" y="536.31" width="20.97" height="20.97"/>
    <rect class="cls-8" x="305.63" y="536.31" width="20.97" height="20.97"/>
    <rect class="cls-8" x="284.66" y="536.31" width="20.97" height="20.97"/>
    <rect class="cls-10" x="347.57" y="536.31" width="20.97" height="20.97"/>
    <rect class="cls-10" x="368.54" y="536.31" width="20.97" height="20.97"/>
    <rect class="cls-11" x="389.51" y="536.31" width="20.97" height="20.97"/>
    <rect class="cls-11" x="410.49" y="557.28" width="20.97" height="20.97"/>
    <rect class="cls-8" x="473.4" y="557.28" width="20.97" height="20.97"/>
    <rect class="cls-10" x="452.43" y="557.28" width="20.97" height="20.97"/>
    <rect class="cls-11" x="431.46" y="557.28" width="20.97" height="20.97"/>
    <rect class="cls-8" x="494.37" y="557.28" width="20.97" height="20.97"/>
    <rect class="cls-8" x="515.34" y="557.28" width="20.97" height="20.97"/>
    <rect class="cls-8" x="536.31" y="557.28" width="20.97" height="20.97"/>
    <rect class="cls-8" x="326.6" y="557.28" width="20.97" height="20.97"/>
    <rect class="cls-8" x="305.63" y="557.28" width="20.97" height="20.97"/>
    <rect class="cls-8" x="347.57" y="557.28" width="20.97" height="20.97"/>
    <rect class="cls-10" x="368.54" y="557.28" width="20.97" height="20.97"/>
    <rect class="cls-10" x="389.51" y="557.28" width="20.97" height="20.97"/>
    <rect class="cls-8" x="410.49" y="578.25" width="20.97" height="20.97"/>
    <rect class="cls-8" x="452.43" y="578.25" width="20.97" height="20.97"/>
    <rect class="cls-8" x="431.46" y="578.25" width="20.97" height="20.97"/>
    <rect class="cls-8" x="578.25" y="578.25" width="20.97" height="20.97"/>
    <rect class="cls-8" x="410.49" y="599.22" width="20.97" height="20.97"/>
    <rect class="cls-8" x="599.22" y="578.25" width="20.97" height="20.97"/>
  </g>
  <rect class="cls-9" x="599.22" y="599.22" width="20.97" height="20.97"/>
  <rect class="cls-9" x="620.19" y="599.22" width="20.97" height="20.97"/>
  <rect class="cls-7" x="599.22" y="620.2" width="20.97" height="20.97"/>
  <rect class="cls-9" x="620.19" y="620.2" width="20.97" height="20.97"/>
  <rect class="cls-7" x="599.22" y="641.17" width="20.97" height="20.97"/>
  <rect class="cls-7" x="620.19" y="641.17" width="20.97" height="20.97"/>
  <rect class="cls-3" x="641.16" y="599.22" width="20.97" height="20.97"/>
  <rect class="cls-3" x="662.13" y="599.22" width="20.97" height="20.97"/>
  <rect class="cls-3" x="641.16" y="620.2" width="20.97" height="20.97"/>
  <rect class="cls-3" x="662.13" y="620.2" width="20.97" height="20.97"/>
  <rect class="cls-7" x="641.16" y="641.17" width="20.97" height="20.97"/>
  <rect class="cls-2" x="662.13" y="641.17" width="20.97" height="20.97"/>
  <rect class="cls-7" x="641.16" y="662.14" width="20.97" height="20.97"/>
  <rect class="cls-7" x="662.13" y="662.14" width="20.97" height="20.97"/>
  <rect class="cls-3" x="683.1" y="620.2" width="20.97" height="20.97"/>
  <rect class="cls-2" x="683.1" y="641.17" width="20.97" height="20.97"/>
  <rect class="cls-2" x="683.1" y="662.14" width="20.97" height="20.97"/>
  <rect class="cls-2" x="704.07" y="641.17" width="20.97" height="20.97"/>
  <rect class="cls-2" x="704.07" y="662.14" width="20.97" height="20.97"/>
  <rect class="cls-1" x="242.72" y="641.17" width="20.97" height="20.97"/>
  <rect class="cls-1" x="221.75" y="641.17" width="20.97" height="20.97"/>
  <rect class="cls-1" x="410.49" y="662.14" width="20.97" height="20.97"/>
  <rect class="cls-7" x="452.43" y="662.14" width="20.97" height="20.97"/>
  <rect class="cls-7" x="431.46" y="662.14" width="20.97" height="20.97"/>
  <rect class="cls-9" x="263.69" y="662.14" width="20.97" height="20.97"/>
  <rect class="cls-1" x="347.57" y="662.14" width="20.97" height="20.97"/>
  <rect class="cls-1" x="368.54" y="662.14" width="20.97" height="20.97"/>
  <rect class="cls-1" x="389.51" y="662.14" width="20.97" height="20.97"/>
  <rect class="cls-1" x="242.72" y="662.14" width="20.97" height="20.97"/>
  <rect class="cls-1" x="221.75" y="662.14" width="20.97" height="20.97"/>
  <rect class="cls-6" x="410.49" y="683.11" width="20.97" height="20.97"/>
  <rect class="cls-7" x="431.46" y="683.11" width="20.97" height="20.97"/>
  <rect class="cls-6" x="347.57" y="683.11" width="20.97" height="20.97"/>
  <rect class="cls-1" x="368.54" y="683.11" width="20.97" height="20.97"/>
  <rect class="cls-1" x="389.51" y="683.11" width="20.97" height="20.97"/>
  <rect class="cls-9" x="200.78" y="578.25" width="20.97" height="20.97"/>
  <rect class="cls-1" x="200.78" y="620.2" width="20.97" height="20.97"/>
  <rect class="cls-1" x="200.78" y="641.17" width="20.97" height="20.97"/>
  <rect class="cls-9" x="200.78" y="662.14" width="20.97" height="20.97"/>
  <rect class="cls-9" x="179.81" y="578.25" width="20.97" height="20.97"/>
  <rect class="cls-9" x="179.81" y="599.22" width="20.97" height="20.97"/>
  <rect class="cls-9" x="158.84" y="578.25" width="20.97" height="20.97"/>
  <rect class="cls-9" x="158.84" y="599.22" width="20.97" height="20.97"/>
  <rect class="cls-9" x="158.84" y="620.2" width="20.97" height="20.97"/>
  <rect class="cls-9" x="158.84" y="641.17" width="20.97" height="20.97"/>
  <rect class="cls-9" x="137.87" y="599.22" width="20.97" height="20.97"/>
  <rect class="cls-9" x="137.87" y="620.2" width="20.97" height="20.97"/>
  <rect class="cls-9" x="137.87" y="641.17" width="20.97" height="20.97"/>
  <rect class="cls-9" x="116.9" y="599.22" width="20.97" height="20.97"/>
  <rect class="cls-2" x="116.9" y="620.2" width="20.97" height="20.97"/>
  <rect class="cls-2" x="116.9" y="641.17" width="20.97" height="20.97"/>
  <rect class="cls-2" x="95.93" y="599.22" width="20.97" height="20.97"/>
  <rect class="cls-2" x="95.93" y="620.2" width="20.97" height="20.97"/>
  <rect class="cls-2" x="95.93" y="641.17" width="20.97" height="20.97"/>
  <rect class="cls-2" x="74.95" y="599.22" width="20.97" height="20.97"/>
  <rect class="cls-2" x="74.95" y="620.2" width="20.97" height="20.97"/>
  <g>
    <rect class="cls-6" x="515.34" y="368.54" width="20.97" height="20.97"/>
    <rect class="cls-6" x="494.37" y="347.57" width="20.97" height="20.97"/>
    <rect class="cls-6" x="515.34" y="347.57" width="20.97" height="20.97"/>
    <rect class="cls-6" x="473.4" y="326.6" width="20.97" height="20.97"/>
    <rect class="cls-6" x="326.6" y="305.63" width="20.97" height="20.97"/>
    <rect class="cls-6" x="326.6" y="284.66" width="20.97" height="20.97"/>
    <rect class="cls-6" x="326.6" y="263.69" width="20.97" height="20.97"/>
    <rect class="cls-6" x="347.57" y="242.72" width="20.97" height="20.97"/>
    <rect class="cls-6" x="347.57" y="221.75" width="20.97" height="20.97"/>
    <rect class="cls-6" x="347.57" y="200.77" width="20.97" height="20.97"/>
    <rect class="cls-6" x="347.57" y="179.8" width="20.97" height="20.97"/>
    <rect class="cls-6" x="473.4" y="305.63" width="20.97" height="20.97"/>
    <rect class="cls-6" x="515.34" y="326.6" width="20.97" height="20.97"/>
    <rect class="cls-6" x="515.34" y="305.63" width="20.97" height="20.97"/>
    <rect class="cls-6" x="557.28" y="326.6" width="20.97" height="20.97"/>
    <rect class="cls-6" x="557.28" y="347.57" width="20.97" height="20.97"/>
    <rect class="cls-6" x="578.25" y="368.54" width="20.97" height="20.97"/>
    <rect class="cls-6" x="578.25" y="389.51" width="20.97" height="20.97"/>
    <rect class="cls-6" x="536.31" y="305.63" width="20.97" height="20.97"/>
    <rect class="cls-6" x="473.4" y="284.66" width="20.97" height="20.97"/>
    <rect class="cls-6" x="473.4" y="263.69" width="20.97" height="20.97"/>
    <rect class="cls-6" x="473.4" y="242.72" width="20.97" height="20.97"/>
    <rect class="cls-6" x="452.43" y="221.75" width="20.97" height="20.97"/>
    <rect class="cls-6" x="452.43" y="200.77" width="20.97" height="20.97"/>
    <rect class="cls-6" x="452.43" y="179.8" width="20.97" height="20.97"/>
    <rect class="cls-6" x="452.43" y="158.83" width="20.97" height="20.97"/>
    <rect class="cls-6" x="368.54" y="158.83" width="20.97" height="20.97"/>
    <rect class="cls-6" x="431.46" y="137.86" width="20.97" height="20.97"/>
    <rect class="cls-6" x="368.54" y="137.86" width="20.97" height="20.97"/>
    <rect class="cls-6" x="431.46" y="116.89" width="20.97" height="20.97"/>
    <rect class="cls-6" x="389.51" y="116.89" width="20.97" height="20.97"/>
    <rect class="cls-6" x="431.46" y="95.92" width="20.97" height="20.97"/>
    <rect class="cls-6" x="431.46" y="74.95" width="20.97" height="20.97"/>
    <rect class="cls-6" x="410.49" y="74.95" width="20.97" height="20.97"/>
    <rect class="cls-6" x="389.51" y="95.92" width="20.97" height="20.97"/>
    <rect class="cls-6" x="305.63" y="326.6" width="20.97" height="20.97"/>
    <rect class="cls-6" x="284.66" y="347.57" width="20.97" height="20.97"/>
    <rect class="cls-6" x="284.66" y="305.63" width="20.97" height="20.97"/>
    <rect class="cls-6" x="284.66" y="326.6" width="20.97" height="20.97"/>
    <rect class="cls-6" x="263.69" y="284.66" width="20.97" height="20.97"/>
    <rect class="cls-6" x="242.72" y="347.57" width="20.97" height="20.97"/>
    <rect class="cls-6" x="242.72" y="368.54" width="20.97" height="20.97"/>
    <rect class="cls-6" x="221.75" y="389.51" width="20.97" height="20.97"/>
    <rect class="cls-6" x="578.25" y="410.49" width="20.97" height="20.97"/>
    <rect class="cls-6" x="221.75" y="410.49" width="20.97" height="20.97"/>
    <rect class="cls-6" x="599.22" y="431.46" width="20.97" height="20.97"/>
    <rect class="cls-6" x="599.22" y="452.43" width="20.97" height="20.97"/>
    <rect class="cls-6" x="599.22" y="473.4" width="20.97" height="20.97"/>
    <rect class="cls-6" x="599.22" y="494.37" width="20.97" height="20.97"/>
    <rect class="cls-6" x="200.78" y="431.46" width="20.97" height="20.97"/>
    <rect class="cls-6" x="200.78" y="452.43" width="20.97" height="20.97"/>
    <rect class="cls-6" x="200.78" y="473.4" width="20.97" height="20.97"/>
    <rect class="cls-6" x="200.78" y="494.37" width="20.97" height="20.97"/>
    <rect class="cls-6" x="578.25" y="515.34" width="20.97" height="20.97"/>
    <rect class="cls-6" x="221.75" y="515.34" width="20.97" height="20.97"/>
    <rect class="cls-6" x="557.28" y="536.31" width="20.97" height="20.97"/>
    <rect class="cls-6" x="578.25" y="536.31" width="20.97" height="20.97"/>
    <rect class="cls-6" x="263.69" y="557.28" width="20.97" height="20.97"/>
    <rect class="cls-6" x="473.4" y="578.25" width="20.97" height="20.97"/>
    <rect class="cls-6" x="515.34" y="578.25" width="20.97" height="20.97"/>
    <rect class="cls-6" x="536.31" y="578.25" width="20.97" height="20.97"/>
    <rect class="cls-6" x="368.54" y="578.25" width="20.97" height="20.97"/>
    <rect class="cls-6" x="389.51" y="578.25" width="20.97" height="20.97"/>
    <rect class="cls-6" x="221.75" y="578.25" width="20.97" height="20.97"/>
    <rect class="cls-6" x="515.34" y="599.22" width="20.97" height="20.97"/>
    <rect class="cls-6" x="347.57" y="599.22" width="20.97" height="20.97"/>
    <rect class="cls-6" x="515.34" y="620.2" width="20.97" height="20.97"/>
    <rect class="cls-6" x="326.6" y="620.2" width="20.97" height="20.97"/>
    <rect class="cls-6" x="515.34" y="641.17" width="20.97" height="20.97"/>
    <rect class="cls-6" x="536.31" y="641.17" width="20.97" height="20.97"/>
    <rect class="cls-6" x="326.6" y="641.17" width="20.97" height="20.97"/>
    <rect class="cls-6" x="305.63" y="641.17" width="20.97" height="20.97"/>
    <rect class="cls-6" x="557.28" y="641.17" width="20.97" height="20.97"/>
    <rect class="cls-6" x="599.22" y="557.28" width="20.97" height="20.97"/>
    <rect class="cls-6" x="620.19" y="557.28" width="20.97" height="20.97"/>
    <rect class="cls-6" x="599.22" y="662.14" width="20.97" height="20.97"/>
    <rect class="cls-6" x="620.19" y="662.14" width="20.97" height="20.97"/>
    <rect class="cls-6" x="641.16" y="578.25" width="20.97" height="20.97"/>
    <rect class="cls-6" x="662.13" y="578.25" width="20.97" height="20.97"/>
    <rect class="cls-6" x="683.1" y="599.22" width="20.97" height="20.97"/>
    <rect class="cls-6" x="704.07" y="620.2" width="20.97" height="20.97"/>
    <rect class="cls-6" x="641.16" y="683.11" width="20.97" height="20.97"/>
    <rect class="cls-6" x="662.13" y="683.11" width="20.97" height="20.97"/>
    <rect class="cls-6" x="683.1" y="683.11" width="20.97" height="20.97"/>
    <rect class="cls-6" x="704.07" y="683.11" width="20.97" height="20.97"/>
    <rect class="cls-6" x="725.05" y="641.17" width="20.97" height="20.97"/>
    <rect class="cls-6" x="725.05" y="662.14" width="20.97" height="20.97"/>
    <rect class="cls-6" x="473.4" y="662.14" width="20.97" height="20.97"/>
    <rect class="cls-6" x="494.37" y="662.14" width="20.97" height="20.97"/>
    <rect class="cls-6" x="326.6" y="662.14" width="20.97" height="20.97"/>
    <rect class="cls-6" x="305.63" y="662.14" width="20.97" height="20.97"/>
    <rect class="cls-6" x="284.66" y="662.14" width="20.97" height="20.97"/>
    <rect class="cls-6" x="578.25" y="662.14" width="20.97" height="20.97"/>
    <rect class="cls-6" x="473.4" y="683.11" width="20.97" height="20.97"/>
    <rect class="cls-6" x="452.43" y="683.11" width="20.97" height="20.97"/>
    <rect class="cls-6" x="263.69" y="683.11" width="20.97" height="20.97"/>
    <rect class="cls-6" x="326.6" y="683.11" width="20.97" height="20.97"/>
    <rect class="cls-6" x="410.49" y="704.08" width="20.97" height="20.97"/>
    <rect class="cls-6" x="431.46" y="704.08" width="20.97" height="20.97"/>
    <rect class="cls-6" x="347.57" y="704.08" width="20.97" height="20.97"/>
    <rect class="cls-6" x="368.54" y="704.08" width="20.97" height="20.97"/>
    <rect class="cls-6" x="389.51" y="704.08" width="20.97" height="20.97"/>
    <rect class="cls-6" x="242.72" y="683.11" width="20.97" height="20.97"/>
    <rect class="cls-6" x="221.75" y="683.11" width="20.97" height="20.97"/>
    <rect class="cls-6" x="200.78" y="536.31" width="20.97" height="20.97"/>
    <rect class="cls-6" x="200.78" y="599.22" width="20.97" height="20.97"/>
    <rect class="cls-6" x="179.81" y="536.31" width="20.97" height="20.97"/>
    <rect class="cls-6" x="179.81" y="620.2" width="20.97" height="20.97"/>
    <rect class="cls-6" x="179.81" y="641.17" width="20.97" height="20.97"/>
    <rect class="cls-6" x="179.81" y="662.14" width="20.97" height="20.97"/>
    <rect class="cls-6" x="158.84" y="557.28" width="20.97" height="20.97"/>
    <rect class="cls-6" x="158.84" y="662.14" width="20.97" height="20.97"/>
    <rect class="cls-6" x="137.87" y="557.28" width="20.97" height="20.97"/>
    <rect class="cls-6" x="137.87" y="662.14" width="20.97" height="20.97"/>
    <rect class="cls-6" x="116.9" y="578.25" width="20.97" height="20.97"/>
    <rect class="cls-6" x="116.9" y="662.14" width="20.97" height="20.97"/>
    <rect class="cls-6" x="95.93" y="578.25" width="20.97" height="20.97"/>
    <rect class="cls-6" x="95.93" y="662.14" width="20.97" height="20.97"/>
    <rect class="cls-6" x="74.95" y="578.25" width="20.97" height="20.97"/>
    <rect class="cls-6" x="53.98" y="578.25" width="20.97" height="20.97"/>
    <rect class="cls-6" x="53.98" y="599.22" width="20.97" height="20.97"/>
    <rect class="cls-6" x="53.98" y="620.2" width="20.97" height="20.97"/>
    <rect class="cls-6" x="74.95" y="641.17" width="20.97" height="20.97"/>
    <rect class="cls-6" x="200.78" y="683.11" width="20.97" height="20.97"/>
    <rect class="cls-6" x="242.72" y="326.6" width="20.97" height="20.97"/>
    <rect class="cls-6" x="242.72" y="305.63" width="20.97" height="20.97"/>
    <rect class="cls-6" x="242.72" y="284.66" width="20.97" height="20.97"/>
  </g>
  <g>
    <rect class="cls-4" x="515.34" y="389.51" width="20.97" height="20.97"/>
    <rect class="cls-4" x="305.63" y="347.57" width="20.97" height="20.97"/>
    <rect class="cls-4" x="368.54" y="179.8" width="20.97" height="20.97"/>
    <rect class="cls-4" x="452.43" y="242.72" width="20.97" height="20.97"/>
    <rect class="cls-4" x="536.31" y="326.6" width="20.97" height="20.97"/>
    <rect class="cls-4" x="557.28" y="368.54" width="20.97" height="20.97"/>
    <rect class="cls-4" x="389.52" y="137.86" width="20.97" height="20.97"/>
    <rect class="cls-4" x="410.49" y="95.92" width="20.97" height="20.97"/>
    <rect class="cls-4" x="326.6" y="326.6" width="20.97" height="20.97"/>
    <rect class="cls-4" x="242.72" y="389.51" width="20.97" height="20.97"/>
    <rect class="cls-4" x="578.25" y="431.46" width="20.97" height="20.97"/>
    <rect class="cls-4" x="221.75" y="494.37" width="20.97" height="20.97"/>
    <rect class="cls-4" x="242.72" y="536.31" width="20.97" height="20.97"/>
    <rect class="cls-4" x="221.75" y="536.31" width="20.97" height="20.97"/>
    <rect class="cls-4" x="515.34" y="557.28" width="20.97" height="20.97"/>
    <rect class="cls-4" x="284.66" y="557.28" width="20.97" height="20.97"/>
    <rect class="cls-4" x="410.49" y="578.25" width="20.97" height="20.97"/>
    <rect class="cls-4" x="452.43" y="578.25" width="20.97" height="20.97"/>
    <rect class="cls-4" x="263.69" y="578.25" width="20.97" height="20.97"/>
    <rect class="cls-4" x="305.63" y="578.25" width="20.97" height="20.97"/>
    <rect class="cls-4" x="557.28" y="578.25" width="20.97" height="20.97"/>
    <rect class="cls-4" x="242.72" y="578.25" width="20.97" height="20.97"/>
    <rect class="cls-4" x="389.52" y="599.22" width="20.97" height="20.97"/>
    <rect class="cls-4" x="620.19" y="578.25" width="20.97" height="20.97"/>
    <rect class="cls-4" x="200.78" y="557.28" width="20.97" height="20.97"/>
    <rect class="cls-4" x="179.81" y="557.28" width="20.97" height="20.97"/>
    <rect class="cls-4" x="137.87" y="578.25" width="20.97" height="20.97"/>
  </g>
</svg>