<svg width="30" height="30" viewBox="0 0 30 30" fill="none" xmlns="http://www.w3.org/2000/svg">
<rect width="30" height="30" rx="15" fill="#E4E4E4"/>
<path d="M15.5303 6.21967C15.2374 5.92678 14.7626 5.92678 14.4697 6.21967L9.6967 10.9926C9.40381 11.2855 9.40381 11.7604 9.6967 12.0533C9.98959 12.3462 10.4645 12.3462 10.7574 12.0533L15 7.81066L19.2426 12.0533C19.5355 12.3462 20.0104 12.3462 20.3033 12.0533C20.5962 11.7604 20.5962 11.2855 20.3033 10.9926L15.5303 6.21967ZM14.25 23.25C14.25 23.6642 14.5858 24 15 24C15.4142 24 15.75 23.6642 15.75 23.25H14.25ZM14.25 6.75V23.25H15.75V6.75H14.25Z" fill="black"/>
</svg>
